<svg xmlns="http://www.w3.org/2000/svg" width="21" height="21.081" viewBox="0 0 21 21.081"><defs><style>.a{fill:#fff;}</style></defs><path class="a" d="M326.785,408.862h-.77l-1.3-3.327c-.678.177-1.368.368-2.065.536-1.226.3-1.728-.161-1.481-1.376.149-.733.372-1.451.578-2.236a14.965,14.965,0,0,1-1.712-.511c-.512-.222-1.347-.526-1.373-.849a2.523,2.523,0,0,1,.779-1.576,8.056,8.056,0,0,1,1.588-1.067c-.716-.618-1.014-.861-1.3-1.122a9.359,9.359,0,0,1-.819-.811c-.647-.764-.482-1.434.462-1.757.751-.258,1.529-.438,2.387-.678-.217-.8-.435-1.485-.585-2.185-.263-1.223.233-1.717,1.45-1.453.728.157,1.444.368,2.207.565.249-.9.414-1.649.665-2.366.329-.945,1.022-1.133,1.754-.447.582.545,1.068,1.194,1.714,1.93.6-.667,1-1.164,1.449-1.615,1.157-1.161,1.836-.954,2.266.661.16.6.344,1.193.538,1.861.745-.2,1.353-.38,1.967-.536,1.447-.368,1.959.126,1.6,1.552-.163.653-.353,1.3-.546,2,.438.144.791.27,1.149.375s.748.177,1.111.3c1.143.374,1.338,1,.526,1.854-.523.55-1.139,1.01-1.973,1.737.762.62,1.367,1.032,1.874,1.541.95.956.754,1.64-.532,2.021-.711.211-1.43.394-2.162.594.245.916.481,1.647.632,2.4.194.967-.319,1.467-1.284,1.26-.778-.167-1.541-.4-2.239-.59l-1.423,3.318h-.77l-2.073-2.208Z" transform="translate(-318.523 -387.781)"/></svg>