<svg xmlns="http://www.w3.org/2000/svg" width="17" height="17" viewBox="0 0 17 17"><defs><style>.a{fill:#ffffff;}</style></defs><g transform="translate(9.935)"><path class="a" d="M302.22,2.9a1.485,1.485,0,0,0-.438-1.056L300.374.438A1.528,1.528,0,0,0,299.308,0h-.086V2.988h3V2.9Z" transform="translate(-299.222 0)"/></g><path class="a" d="M9.1,10.278A2,2,0,0,1,9.574,9.5l3.372-3.359V3.984h-3.5a.484.484,0,0,1-.482-.5V0H1.494A1.5,1.5,0,0,0,0,1.494V15.506A1.5,1.5,0,0,0,1.494,17h9.945a1.507,1.507,0,0,0,1.507-1.494V11.789l-.547.534a1.981,1.981,0,0,1-.774.478l-1.584.529-.241.013A1.245,1.245,0,0,1,8.62,11.7ZM2.49,8.965H7.455a.5.5,0,0,1,0,1H2.49a.5.5,0,1,1,0-1Zm-.5-1.494a.5.5,0,0,1,.5-.5H7.455a.5.5,0,1,1,0,1H2.49A.5.5,0,0,1,1.992,7.471Zm0,3.984a.5.5,0,0,1,.5-.5H7.455a.5.5,0,1,1,0,1H2.49A.5.5,0,0,1,1.992,11.455Zm7.455,2.49a.5.5,0,0,1,0,1H6.458a.5.5,0,0,1,0-1ZM2.49,5.977a.5.5,0,1,1,0-1H9.447a.5.5,0,0,1,0,1Z"/><g transform="translate(9.551 10.718)"><path class="a" d="M288.109,322.808l-.433,1.3a.249.249,0,0,0,.315.315l1.3-.434Z" transform="translate(-287.663 -322.808)"/></g><g transform="translate(10.586 6.618)"><path class="a" d="M322.1,199.307l-3.28,3.28L320.235,204l3.28-3.28Z" transform="translate(-318.82 -199.307)"/></g><g transform="translate(14.57 4.912)"><path class="a" d="M440.956,148.226a1.04,1.04,0,0,0-1.413,0l-.724.724,1.414,1.414.724-.724A1,1,0,0,0,440.956,148.226Z" transform="translate(-438.819 -147.949)"/></g><g transform="translate(16.708 6.594)"><path class="a" d="M503.215,198.811h0l0,0Z" transform="translate(-503.215 -198.801)"/><path class="a" d="M503.3,198.679l0,0Z" transform="translate(-503.3 -198.673)"/><path class="a" d="M503.436,198.6Z" transform="translate(-503.429 -198.602)"/></g></svg>