<svg xmlns="http://www.w3.org/2000/svg" width="28.127" height="16.407" viewBox="0 0 28.127 16.407"><defs><style>.a{fill:#fff;}</style></defs><path class="a" d="M26.8,10.7V4.912a.841.841,0,0,0-.58-.8L13.655.04a.833.833,0,0,0-.514,0L.58,4.111a.843.843,0,0,0,0,1.6L6.869,7.751v3.158c0,.014,0,.027,0,.041.025.819.795,1.6,2.174,2.19a11.253,11.253,0,0,0,4.354.842,11.253,11.253,0,0,0,4.354-.842c1.4-.6,2.174-1.4,2.174-2.231V7.751l5.194-1.684V10.7a2.184,2.184,0,0,0-1.331,2.011v2.852a.84.84,0,0,0,.837.842H27.29a.84.84,0,0,0,.837-.842V12.713A2.183,2.183,0,0,0,26.8,10.7Zm-9.965,1a10.13,10.13,0,0,1-6.866,0,3.338,3.338,0,0,1-1.422-.859V8.294l4.6,1.49a.834.834,0,0,0,.514,0l4.6-1.49V10.84A3.345,3.345,0,0,1,16.831,11.7ZM13.4,8.1,3.565,4.912,13.4,1.725,23.23,4.912Zm13.055,6.624h-.988v-2.01a.494.494,0,1,1,.988,0Zm0,0" transform="translate(0 0.001)"/></svg>