<svg xmlns="http://www.w3.org/2000/svg" width="17" height="17" viewBox="0 0 17 17"><defs><style>.a{fill:#ffffff;}</style></defs><g transform="translate(0)"><g transform="translate(0 0)"><g transform="translate(0)"><path class="a" d="M16.971,2.567a.5.5,0,0,0-.845-.282l-.7.7a1.02,1.02,0,0,1-1.409,0,1,1,0,0,1,0-1.409l.7-.7a.5.5,0,0,0-.282-.845,2.988,2.988,0,0,0-3.309,3.732L3.762,11.127h0A2.989,2.989,0,0,0,.03,14.436a.5.5,0,0,0,.845.282l.7-.7a1.02,1.02,0,0,1,1.409,0,1,1,0,0,1,0,1.409l-.7.7a.5.5,0,0,0,.282.845,2.988,2.988,0,0,0,3.309-3.732l7.364-7.364h0a2.989,2.989,0,0,0,3.732-3.31Z" transform="translate(0 -0.002)"/></g></g><g transform="translate(9.205 9.204)"><path class="a" d="M282.018,279.028a2.939,2.939,0,0,0-.764.111l-1.93-1.93-2.113,2.113,1.93,1.93a2.949,2.949,0,0,0-.111.764,2.988,2.988,0,1,0,2.988-2.988Zm1.634,2.889-.3,1.105a.5.5,0,0,1-.352.352l-1.105.3a.5.5,0,0,1-.481-.129l-.809-.809a.5.5,0,0,1-.129-.481l.3-1.105a.5.5,0,0,1,.352-.352l1.105-.3a.5.5,0,0,1,.481.129l.809.809A.5.5,0,0,1,283.653,281.917Z" transform="translate(-277.211 -277.209)"/></g><g transform="translate(0 0)"><g transform="translate(0 0)"><path class="a" d="M5.874,3.733A3,3,0,0,0,5.1.846a3.061,3.061,0,0,0-4.226,0,2.989,2.989,0,0,0,2.887,5L5.683,7.8,7.8,5.683Zm-1.3-.924-.3,1.105a.5.5,0,0,1-.352.352l-1.105.3a.5.5,0,0,1-.481-.129l-.809-.809A.5.5,0,0,1,1.4,3.144l.3-1.105a.5.5,0,0,1,.352-.352l1.105-.3a.5.5,0,0,1,.481.129l.809.809A.5.5,0,0,1,4.572,2.81Z" transform="translate(-0.001 0)"/></g></g></g></svg>